<svg id="svg2" xmlns="http://www.w3.org/2000/svg" viewBox="0 0 1649.84 993.47"><defs><style>.cls-1{fill:#2c1e0f;}</style></defs><title>vector-traced-compressed</title><g id="g4"><path id="path11931" class="cls-1" d="M1339.65,993.56c13.6-2,31.47-2.3,45.25-5,17.46-2.34,35.84-7,49-10,67.67-16.59,119.28-53.5,164.73-103.37,36.48-51.15,53-97.77,51-158.41,0.93-22.31-1.66-40.21-5-60.1-4.44-7.66-3.85-15.82-8.25-25.91a198.52,198.52,0,0,0-15.28-31.52c-13.81-25.09-35.46-45.73-58-63.68-40.54-28.34-82.4-39.22-127.5-54-18.43-3.38-36.32-7.81-53.27-12l-174.73-41c-7.25-4.18-15.86-3.82-25.5-10-8-3-24.86-10.61-26.5-21-12.93-22.7,1.37-52.19,19.21-63.75,18-11.4,44.42-19.32,63.79-20.61,17.95-2.79,41-1.69,60-.64,32.1,4.7,54.55,11.91,79.73,30.21,10.27,9.15,15,19.15,19.51,28.19,3,10.62,5.5,16.5,5.75,27.48,2.28,10.44,5.3,23.36,16.12,29.12l183.88,1c13-2.38,22.42-16.62,20-30.35C1619.51,333,1603.7,288,1570.3,240.76c-56.34-65.93-148.67-108.16-227.66-117.09-35.13-3.36-70.94-1.78-107-2.12a585.54,585.54,0,0,0-92.28,14.71C1048,159.68,976.14,228.71,947.79,314.56c-2.75,13.51-7.37,22-7.14,35-4.1,16.59-2.1,40.15-3.32,60,4.19,44.62,12.55,76.37,34.05,112.68,14.87,22.94,36.44,43.65,59.76,60.32,50,31.14,105.18,40.66,157.27,57l120.23,25.77a439,439,0,0,1,68.46,18.54c17.67,6,33.79,11.53,47.54,27.16,5.65,8.6,7.65,24.21,5,35.53-10.95,38.83-52.74,54-86,56-7.94,2.74-20,2.28-27.27,4-57.86,3.89-144.46-2.3-164.73-65-3.52-7.23-5.26-16.26-7-25.27-1.29-11.55-4.25-25-15.21-31.48-12.66-6.93-34.45-1.55-51.2-3.25H943.65c-9.45,3.61-22.08,15.78-19.07,28.08,0.17,21.45,1.17,40.17,4.66,58.69,4.24,16,8.76,35.44,16.39,51.65,37.54,80.25,114.28,136.41,199,156.58C1207.13,996.3,1276.29,992.68,1339.65,993.56Z" transform="translate(0 -121.48)"/><path id="_35" data-name="35" class="cls-1" d="M572.6,121.48c-10.78.11-22.28,1.55-32.46,0.49H371.65c-7.64,2.25-19.3,11.17-20,18.5l-345,918.15c-16.07,25-1.21,58.57,26.54,56.21H230.06c14.4-.26,24.82-9.81,28.42-22.85l91.18-267.42h262l53.92,154.81c8.61,7.06,11.48,9.14,33.19,10.15H892.65c17.39-5.29,21.74-29,16-42.07-7.46-17.09-12.93-36.71-20.47-53.5L608.85,141.53C602.57,124,588.35,121.33,572.6,121.48ZM478.46,428.66L544.73,627H410.46Z" transform="translate(0 -121.48)"/></g></svg>