<?xml version="1.0" encoding="UTF-8" standalone="no"?>
<!-- Created with Inkscape (http://www.inkscape.org/) -->

<svg
   xmlns:dc="http://purl.org/dc/elements/1.1/"
   xmlns:cc="http://creativecommons.org/ns#"
   xmlns:rdf="http://www.w3.org/1999/02/22-rdf-syntax-ns#"
   xmlns:svg="http://www.w3.org/2000/svg"
   xmlns="http://www.w3.org/2000/svg"
   xmlns:sodipodi="http://sodipodi.sourceforge.net/DTD/sodipodi-0.dtd"
   xmlns:inkscape="http://www.inkscape.org/namespaces/inkscape"
   width="190.92345mm"
   height="190.92345mm"
   viewBox="0 0 676.5004 676.50039"
   id="svg2"
   version="1.1"
   inkscape:version="0.91 r13725"
   sodipodi:docname="github-inkscape.svg">
  <defs
     id="defs4" />
  <sodipodi:namedview
     id="base"
     pagecolor="#ffffff"
     bordercolor="#666666"
     borderopacity="1.0"
     inkscape:pageopacity="0.0"
     inkscape:pageshadow="2"
     inkscape:zoom="0.52686057"
     inkscape:cx="284.7055"
     inkscape:cy="274.93651"
     inkscape:document-units="px"
     inkscape:current-layer="layer2"
     showgrid="false"
     inkscape:window-width="1536"
     inkscape:window-height="811"
     inkscape:window-x="-8"
     inkscape:window-y="-8"
     inkscape:window-maximized="1"
     width="280mm"
     fit-margin-top="0"
     fit-margin-left="0"
     fit-margin-right="0"
     fit-margin-bottom="0" />
  <metadata
     id="metadata7">
    <rdf:RDF>
      <cc:Work
         rdf:about="">
        <dc:format>image/svg+xml</dc:format>
        <dc:type
           rdf:resource="http://purl.org/dc/dcmitype/StillImage" />
        <dc:title></dc:title>
      </cc:Work>
    </rdf:RDF>
  </metadata>
  <g
     inkscape:groupmode="layer"
     id="layer2"
     inkscape:label="Layer 2"
     style="display:inline;opacity:0.7"
     transform="translate(-26.546236,-341.90448)">
    <path
       style="opacity:1;fill:#000000"
       d="m 197.49023,491.76915 -2.0664,5.48047 c -5.6177,14.8924 -9.0383,37.46963 -7.7421,51.10547 0.4247,4.46875 1.9124,12.83968 3.3047,18.60156 l 2.5312,10.47461 -2.6211,3.27539 c -27.42719,34.25401 -35.32916,71.07827 -26.40036,123.04687 11.33806,65.99111 53.13186,103.67521 127.06836,114.57231 17.356,2.558 16.318,1.8998 11.4765,7.2656 -2.3018,2.5511 -5.3994,6.6074 -6.8828,9.0137 -3.2746,5.3118 -9.1348,22.3962 -9.1348,26.6308 0,2.5927 -1.107,3.4683 -7.1875,5.6934 -11.1149,4.0675 -18.7556,5.4581 -30.3125,5.5136 -24.2803,0.1167 -40.4918,-9.4531 -56.6405,-33.4355 -8.61,-12.7865 -16.4253,-20.7472 -26.0586,-26.543 -11.91149,-7.1663 -27.13191,-9.4633 -34.95707,-5.2754 -5.11433,2.7371 -1.45496,8.0826 11.56641,16.8985 12.78968,8.659 20.91974,19.0869 31.20706,40.0254 12.1532,24.7363 22.2132,34.5691 43.0468,42.0742 16.5254,5.9531 42.6378,6.8716 63.3984,2.2305 l 4.6875,-1.0469 0,32.6797 c 0,48.9199 2.4708,57.503 33.4571,59.55467 l 45.2968,0 45.6993,0 c 28.8209,-2.60667 33.0468,-11.57637 33.0468,-79.99997 -0.045,-59.1045 -0.5133,-63.7764 -7.9804,-79.5 -2.3369,-4.9209 -6.2782,-11.1928 -8.7578,-13.9375 -2.4797,-2.7447 -4.5079,-5.2662 -4.5079,-5.6036 0,-0.3373 3.7967,-1.0032 8.4356,-1.4785 4.6389,-0.4753 14.6233,-2.1746 22.1875,-3.7773 74.9867,-15.8886 111.2441,-60.6824 115.0898,-142.17971 1.723,-36.51331 -7.2414,-64.51562 -29.5859,-92.42187 l -2.6211,-3.27539 2.8457,-11.09961 c 4.0779,-15.9088 3.8663,-37.60549 -0.5332,-54.52344 -1.7408,-6.69388 -3.922,-13.72513 -4.8476,-15.625 -1.631,-3.34795 -1.9702,-3.44697 -11.0137,-3.23242 -16.392,0.3889 -42.3882,10.65041 -67.0293,26.45703 l -10.0996,6.47656 -12.9766,-3.08984 c -42.1848,-10.04468 -92.5183,-10.04468 -134.7031,0 l -12.9766,3.08984 -9.9844,-6.40429 c -23.5441,-15.10291 -49.6717,-25.6235 -66.9394,-26.95508 z"
       id="path3872"
       inkscape:connector-curvature="0"
       sodipodi:nodetypes="ccscccssssssssssssscccccccsssssscccscsccsscccc" />
    <circle
       style="opacity:1;fill:none;fill-opacity:0.86538469;stroke:#000000;stroke-width:34.45299911;stroke-linecap:butt;stroke-linejoin:miter;stroke-miterlimit:4;stroke-dasharray:none;stroke-opacity:1"
       id="path3897"
       cx="364.79645"
       cy="680.15466"
       r="321.02371" />
  </g>
</svg>
